<svg id="Layer_1" height="512" viewBox="0 0 512 512" width="512" xmlns="http://www.w3.org/2000/svg" data-name="Layer 1"><path d="m318.32 449.7a60.478 60.478 0 0 0 -12.389-34.61c-17.022-21.595-15.2-50.67-1.381-73.27l-19.91-43.86-37.69-4.45-.32.16-34.48 59.69v.01a37.4 37.4 0 0 1 12.31 45.86 124.1 124.1 0 0 0 -10.93 56.68l1.49 33.68h104.7z" fill="#c2684f"/><path d="m269.563 300.63-21.613-6.12-.32.16-35.48 58.69v.01a37.4 37.4 0 0 1 12.31 45.86 124.1 124.1 0 0 0 -10.93 56.68l1.49 33.68h20l-1.49-33.68a124.1 124.1 0 0 1 10.93-56.68 37.4 37.4 0 0 0 -12.31-45.86v-.01c25.686-2.373 43.327-28.44 37.413-52.73z" fill="#a84d38"/><path d="m493.6 316.96a34.918 34.918 0 0 0 -20.29-20.04c23.027-37.522-23.5-81.911-59.97-56.69a42.182 42.182 0 0 0 -26.54-21.18l-24.15 14.73-68.03 59.03-9.98 5.15c-8.038 29.4 23.7 57.744 52.23 45.63l.79.15c2.186 57.918 90.026 56.9 90.84-1.08 17.888 42.38 81.016 17.121 65.1-25.7z" fill="#3ca54d"/><path d="m492.71 314.893c-11.815 23.27-50.773 29.6-64.21-2.233-.814 57.977-88.654 59-90.84 1.08l-.79-.15c-18.764 7.968-38.918-1.571-48.228-17.4a41.158 41.158 0 0 1 -4 1.77c-8.038 29.4 23.7 57.744 52.23 45.63l.79.15c2.186 57.918 90.026 56.9 90.84-1.08 17.888 42.38 81.016 17.121 65.1-25.7-.277-.705-.578-1.391-.892-2.067z" fill="#2f8939"/><path d="m457.36 116.73a7.072 7.072 0 0 1 -6.94-6.059c-2.693-24.96-32.076-39.512-53.61-26.881-12.389-25.672-48.71-35.863-72.96-19.51-14.977-51.8-89.556-56-110.56-7.04-19.875-18.383-54.225-.612-50.82 26.27-18.753-3.892-37.277 10.661-37.16 29.98-31.31-35.141-108.01.264-72.2 43.54-34.017 16.838-21.769 60.87 15.48 65.63l294.06 11.12a36.2 36.2 0 0 0 27.02-19.43l-.01-.01h.01v.01c21 26.176 66.224 8.767 63.78-25.09 47.679 2.168 51.098-70.451 3.91-72.53z" fill="#50dd5a"/><path d="m93.11 157.03c-19.883-24.03-5.071-45.63 17.39-54.072-35.192-14.877-88.353 16.65-57.39 54.072-34.017 16.838-21.769 60.87 15.48 65.63a63 63 0 0 1 7.61-22.432c-6.873-14.996-2.57-33.556 16.91-43.198z" fill="#3ec144"/><path d="m176.22 171c8.813-33.311 59.172-32.622 67.06.93 18.094-31.033 68.524-14.662 64.28 21.6 38.86-32.889 83.989 28.438 40.9 55.75l-.28.78c38.8 37.358-25.632 88.914-53.56 42.75l-.22-.08a42.206 42.206 0 0 1 -46.45 1.78l-.32.16c16.824 40.477-34.551 77.457-67.63 49-23.762 63.556-122.5 36.938-110.26-30.56l-.12-.32c-68.638 18.462-71.743-90.376-2.18-75.89-3.15-53.892 61.987-93.639 108.78-65.9z" fill="#49c160"/><path d="m109.74 313.11-.12-.32c-68.638 18.462-71.742-90.376-2.18-75.89-2.011-34.413 23.823-63.055 54.943-72.044-44.778-13.868-97.792 23.3-94.943 72.044-69.562-14.486-66.458 94.352 2.18 75.89l.12.32c-8.924 49.2 41.111 76.665 78.1 63.338-24.501-8.231-43.94-31.122-38.1-63.338z" fill="#35aa49"/><g fill="#284268"><path d="m383.425 392.5c-.25 0 .25 0 0 0z"/><path d="m445.638 112.168c-.155-.535.078.593 0 0z"/><path d="m480.13 294.561a47.64 47.64 0 0 0 -3.869-45.393 46.993 46.993 0 0 0 -30.071-20.168 47.651 47.651 0 0 0 -11.119-.9 41.382 41.382 0 0 0 23.3-33.91 42.17 42.17 0 0 0 11.053-2.344 41.3 41.3 0 0 0 26.333-46.945c-3.879-19.25-19.635-32.891-38.317-33.172a2.1 2.1 0 0 1 -2.019-1.489 1.6 1.6 0 0 1 -.042-.223 41.234 41.234 0 0 0 -56.573-32.745 56.661 56.661 0 0 0 -53.977-25.606 55.892 55.892 0 0 0 -18.264 5.358 64.208 64.208 0 0 0 -115.074-7.254 35.8 35.8 0 0 0 -54.086 28.2q-.672-.016-1.388-.016a35.819 35.819 0 0 0 -34.323 25.872 56.872 56.872 0 0 0 -32.461-9.711c-27.684 0-50.206 18.466-50.206 41.165a35.342 35.342 0 0 0 6.586 20.447c-11.3 7.765-17.888 19.215-17.888 31.541 0 18.1 14.56 34.023 35.251 39.3-.163 1.377-.3 2.758-.391 4.145a44.97 44.97 0 1 0 1.387 88.748 62.485 62.485 0 0 0 62.367 66.039 62.625 62.625 0 0 0 55.729-34.187 47.88 47.88 0 0 0 28.579 7.19 32.488 32.488 0 0 1 9.284 38.611c-.009.017-.016.034-.024.051a129.724 129.724 0 0 0 -11.37 58.969l1.49 33.68a4.99 4.99 0 0 0 5.3 4.779h104.388a5 5 0 0 0 5-5.176l-1.4-39.9a65.166 65.166 0 0 0 -13.409-37.47 55.2 55.2 0 0 1 -5.695-58.2l2.714-5.517a43.965 43.965 0 0 0 26.321 1.646 50.116 50.116 0 0 0 15.054 28.63 50.442 50.442 0 0 0 70.491-.939 50.253 50.253 0 0 0 12.609-21.108 40.14 40.14 0 0 0 44.141 10.375 39.991 39.991 0 0 0 4.592-72.373zm-442.405-107.291c0-10.271 6.561-19.876 17.56-25.726a5.031 5.031 0 0 0 1.363-8.051c-4.986-5.34-7.621-11.634-7.621-18.211 0-17.185 18.036-31.165 40.206-31.165 12.737 0 24.867 4.787 32.447 12.806a5 5 0 0 0 8.633-3.407 25.761 25.761 0 0 1 25.7-25.56 26.51 26.51 0 0 1 5.421.443 5.033 5.033 0 0 0 6.008-5.386 25.781 25.781 0 0 1 42.561-22 5.008 5.008 0 0 0 7.843-1.727 54.2 54.2 0 0 1 101.22 6.453 5 5 0 0 0 7.467 2.758 45.85 45.85 0 0 1 19.453-6.9 46.548 46.548 0 0 1 46.4 24.524 5.01 5.01 0 0 0 7.252 1.812 31.02 31.02 0 0 1 11.265-3.559c16.869-1.975 32.534 10.965 34.73 27.787 1.479 5.131 6.266 9.484 11.651 9.565 14.158.213 25.677 10.319 28.666 25.148a31.253 31.253 0 0 1 -19.88 35.547 31.881 31.881 0 0 1 -12.148 1.845 5.02 5.02 0 0 0 -5.462 5.336 31.2 31.2 0 0 1 -54.892 21.614 5.034 5.034 0 0 0 -8.419.957 31.286 31.286 0 0 1 -14.959 14.227 39.779 39.779 0 0 0 -57.9-42.313 39.809 39.809 0 0 0 -67.555-22.087 39.8 39.8 0 0 0 -71.238 2.065 78.652 78.652 0 0 0 -108.714 52.65c-15.929-4.301-27.058-16.139-27.058-29.445zm379.948 44.884c-.876.391-1.746.8-2.6 1.247-.316-.466-.647-.922-.98-1.376 1.186.092 2.379.14 3.58.129zm-234.4 107.728a5.032 5.032 0 0 0 -8.055 2.28 52.476 52.476 0 0 1 -100.552-28.185c.718-3.752-3.136-7.337-6.752-5.891a34.969 34.969 0 1 1 -1.909-66.386 5.036 5.036 0 0 0 6.432-4.877 68.681 68.681 0 0 1 56.507-68.641 67.917 67.917 0 0 1 44.865 7.2 5.023 5.023 0 0 0 7.288-3.225 29.792 29.792 0 0 1 57.3.885c.84 4.361 7.2 5.278 9.236 1.339a29.785 29.785 0 0 1 54.967 18.465c-.757 4.491 5.085 7.564 8.342 4.371a29.782 29.782 0 1 1 35.014 47.741c-2.954 1.75-3.86 6.532-1.091 8.859a29.781 29.781 0 0 1 -37.382 46.283 29.52 29.52 0 0 1 -8.478-9.688 5.246 5.246 0 0 0 -7.529-1.746 37 37 0 0 1 -40.926 1.569c-3.941-2.535-9.467 1.88-7.566 6.274a38.105 38.105 0 0 1 -59.71 43.371zm118.682 78.239a55.223 55.223 0 0 1 11.362 31.751l1.219 34.723h-94.73l-1.279-28.9a119.69 119.69 0 0 1 10.473-54.362l.023-.05a42.53 42.53 0 0 0 -6.462-45.1c1.258-.415 2.509-.863 3.744-1.386a48.147 48.147 0 0 0 28.817-51.5 46.945 46.945 0 0 0 23.477 1.529 44.068 44.068 0 0 0 19.444 38.9l-2.806 5.7a65.141 65.141 0 0 0 6.719 68.695zm186.509-76.4a29.993 29.993 0 0 1 -55.32-.918 5 5 0 0 0 -9.644 1.79 40.215 40.215 0 0 1 -39.846 39.9 40.658 40.658 0 0 1 -41-38.939c-.042-3.721-4.349-5.842-7.6-4.629a34.109 34.109 0 0 1 -46.047-37.37c1.349-.6 2.678-1.262 3.978-2a39.8 39.8 0 1 0 62.6-49.072 39.947 39.947 0 0 0 10.365-12.235 41.25 41.25 0 0 0 22.617-13.4 37.4 37.4 0 0 1 20.351 17.7 5.043 5.043 0 0 0 7.291 1.776 37.307 37.307 0 0 1 51.727 10.379 37.543 37.543 0 0 1 1.1 39.611 5.021 5.021 0 0 0 2.689 7.347 29.994 29.994 0 0 1 16.739 40.056z"/><path d="m98.77 406.156a93.284 93.284 0 0 0 29.313 4.725c19.807 0 39.147-6.324 54.276-18.362a5 5 0 1 0 -6.226-7.826c-19.705 15.681-48.838 20.379-74.218 11.971a5 5 0 1 0 -3.145 9.492z"/><path d="m85.938 389.275a72.972 72.972 0 0 1 -9.227-6.688 5 5 0 0 0 -6.489 7.609 83.067 83.067 0 0 0 10.5 7.609 5 5 0 0 0 5.219-8.53z"/></g></svg>